PathFileType	4	(X/Y/Z)	Patient4_TMGait_0pt6_02_left_25.trc.trc
DataRate	CameraRate	NumFrames	NumMarkers	Units	OrigDataRate	OrigDataStartFrame	OrigNumFrames
82.352941176471	82.352941176471	5	33	mm	82.352941176471	124	       141
Frame#	Time	Sacral			L.Shoulder			Chest			R.Shoulder			Neck			R.ASIS			L.ASIS			R.Thigh.Superior			R.Thigh.Lateral			R.Thigh.Inferior			R.Patella			L.Thigh.Superior			L.Thigh.Lateral			L.Thigh.Inferior			L.Patella			L.Shank.Superior			L.Shank.Lateral			L.Shank.Inferior			R.Shank.Superior			R.Shank.Lateral			R.Shank.Inferior			R.Heel			R.Midfoot.Superior			R.Midfoot.Lateral			R.Toe			L.Heel			L.Midfoot.Lateral			L.Midfoot.Superior			L.Toe			L.Elbow			L.Wrist			R.Elbow			R.Wrist			
		X1	Y1	Z1	X2	Y2	Z2	X3	Y3	Z3	X4	Y4	Z4	X5	Y5	Z5	X6	Y6	Z6	X7	Y7	Z7	X8	Y8	Z8	X9	Y9	Z9	X10	Y10	Z10	X11	Y11	Z11	X12	Y12	Z12	X13	Y13	Z13	X14	Y14	Z14	X15	Y15	Z15	X16	Y16	Z16	X17	Y17	Z17	X18	Y18	Z18	X19	Y19	Z19	X20	Y20	Z20	X21	Y21	Z21	X22	Y22	Z22	X23	Y23	Z23	X24	Y24	Z24	X25	Y25	Z25	X26	Y26	Z26	X27	Y27	Z27	X28	Y28	Z28	X29	Y29	Z29	X30	Y30	Z30	X31	Y31	Z31	X32	Y32	Z32	X33	Y33	Z33	

124	32.083571428571	848.174806044743	1003.659268859944	473.953357846417	1023.986340217481	1431.272744063404	298.878796692959	1136.870092107386	1354.148825232998	448.747720270917	1068.155965803670	1428.675736293731	628.317161920179	1038.748810519300	1486.753352329410	450.790457046740	1074.321977913625	936.213232752816	585.481531498270	1056.653351837309	952.019844966687	310.837450120986	1075.421145367761	724.768223477273	560.909792966697	970.434556693203	629.897054996517	618.139072742424	1035.774741948495	565.376710334722	541.220918309313	1017.190835144612	479.640624726308	545.329732809250	1131.206089120805	772.900391188601	340.514383860232	1080.438464841689	642.318086879599	266.012885293644	1187.145623518122	585.455211804115	322.629245219547	1208.184401988860	513.394194100331	321.434991708274	1185.665128692072	437.536702636530	314.321037105899	1103.312672181664	315.098067675557	268.544351329387	1178.449798910793	208.282128468577	325.749661212596	978.784836412615	394.475792296186	550.153042186252	890.604643725669	300.534781626156	606.882664907064	924.288055222562	201.795802698800	544.653736155377	777.353488103130	41.782233927089	507.323613105514	949.156903874570	96.873619164340	547.257136654049	858.976952508210	36.497656094364	583.869983567920	1067.258256752041	43.609602502251	577.129604979445	1075.113609909505	41.504278470661	368.163450807175	1147.461331522446	39.105813376589	286.477104875544	1226.195966256853	107.462603054059	307.571364427386	1356.178746428722	63.939246487077	278.712804481801	875.008287700026	1111.480604034478	194.434136111908	850.102261081608	851.040545319543	189.510801099363	1098.803385078253	1091.548107816935	758.060276758280	1329.342402195819	1109.522880058825	667.445887495309	
125	32.095714285714	848.851958689684	1002.811110399543	471.437063798699	1024.095455455875	1430.007672203139	295.765137403563	1136.823087448732	1353.637755274772	446.192141363802	1067.159361082035	1428.319334820998	625.413946854545	1038.312534135928	1486.064024433415	447.476203153381	1074.812263055555	935.188176891063	583.517226541701	1057.860241250322	951.058433716286	309.294138311641	1075.673299983404	723.440446835451	559.197579827849	970.213382691884	628.925613223659	616.317445239608	1035.258512718688	563.916672412925	539.428127687068	1016.069851907690	477.689043488915	543.388474715297	1131.571795602810	769.809168326864	340.517003569797	1079.031645919269	640.072514503659	266.653138472721	1184.414930155408	582.026532694829	324.885523592276	1203.968674894173	509.550294112694	324.483057691727	1180.928565357891	433.891201854547	316.592795326970	1097.727974021831	312.339481037378	269.969824740661	1170.590510306844	204.746297882656	328.572588086668	976.362000879847	393.127759475946	548.524494079082	887.122283436785	300.545282646803	605.909864889946	918.994035877229	201.261051854150	543.719704903294	770.143386176657	42.266497341804	507.213256375644	942.121201630416	96.807637054692	547.038849873927	851.746256151962	36.667635190672	583.715102879201	1060.097430300355	42.958970586010	577.220751048333	1064.112948801999	40.050571821115	369.791097147806	1137.104066769232	37.207477984198	288.563612443497	1216.884724123328	103.713518781974	311.262668531348	1346.647265753873	58.116022094580	283.110057180313	876.825899578182	1109.110774216960	191.822316300902	854.954584632819	848.264204112106	186.755569783703	1092.638682269571	1090.619590084282	755.717117382902	1323.484036638394	1102.608141207688	664.132813539389	
126	32.107857142857	849.441064605571	1002.191909265640	469.025427995442	1024.379674156876	1428.904797361837	292.605465401663	1136.909226956407	1353.233090534458	443.586607615969	1066.388886410150	1428.154174419886	622.449947031759	1038.105277749362	1485.557811335548	444.081025392060	1075.302226896855	934.303832442411	581.504027697888	1058.831251368108	950.376977748740	307.687562564899	1076.135723167067	722.307989748181	557.347865897161	970.379232362158	628.012318323755	614.401696405362	1035.285720459027	562.566029966807	537.616404114271	1015.596945242708	475.667581296947	541.533849139653	1131.664432854853	767.069243235963	340.250183714324	1077.511954082436	638.276544778619	266.852982773060	1181.514365831463	579.115412364213	326.742509097504	1199.746097636563	506.395199216212	327.036974448868	1176.378634234479	430.933403808821	318.379636807458	1092.690834295368	310.107262443464	270.788446414683	1163.424584419039	201.925554894361	330.735717970706	974.359824823273	391.828528629588	546.929427700400	883.896007287209	300.766441715204	604.883316214712	913.912482803362	200.888907583165	542.822812561735	762.969461229829	43.091680001122	507.100129948635	935.220860377767	96.805886684478	546.827701774211	844.569166837347	36.974725675682	583.532545642466	1053.003923658644	42.235016602113	577.313018069101	1054.256405970393	38.975754656564	370.898192017971	1127.706459609923	35.923811868290	289.985781822480	1208.301734823834	100.868342819591	314.109142127880	1337.876039898921	53.662868579349	286.357917836153	879.234899299867	1106.707387189786	189.073316080474	860.710159465514	845.433137232027	183.773493465732	1086.018169387105	1089.841359657395	753.145477656144	1317.348446674015	1094.313781279906	661.062698443056	
127	32.120000000000	849.916475755622	1001.848762393404	466.734701890271	1024.800122228626	1428.026578244291	289.452125299306	1137.103197931266	1352.970291169288	440.955489058452	1065.874784037470	1428.226707306306	619.462260222316	1038.121912223572	1485.276817565332	440.666147612585	1075.752313937595	933.613953416485	579.426108432915	1059.519956045255	950.031951547298	305.964232117615	1076.740514822041	721.438993835985	555.384528264579	970.880842469000	627.221153008736	612.434035340605	1035.839880206315	561.389787229651	535.856500930630	1015.790091572759	473.632049227235	539.891868616950	1131.517727322673	764.888680014981	339.608623511486	1075.982837544876	637.038415478319	266.552908342110	1178.569383863484	576.836228638112	328.017048671762	1195.637720696485	503.994849061359	328.922628030360	1172.096069485668	428.700922694671	319.611578730316	1088.208902811024	308.462657229990	270.970662169302	1156.930657151079	199.843616523090	332.216974813353	972.788287928663	390.639855314383	545.457027642911	880.918093240574	301.265906781922	603.845692211817	909.065048994429	200.745705960845	542.021187242240	755.849438452267	44.368969045829	507.005436908313	928.484461821483	96.882373673077	546.640800787686	837.458768366962	37.473216258785	583.339649110369	1045.979026362931	41.458980170115	577.404013197676	1045.483171325896	38.281027369369	371.536424346337	1119.218161865761	35.186328437300	290.809848382609	1200.410072830966	98.898584740636	316.095715587747	1329.828173442617	50.525436505398	288.485720651954	882.190706549382	1104.359098735999	186.221686402313	867.351565685466	842.654261257683	180.556683130414	1079.022029360396	1089.287954933586	750.324097308692	1310.884579101470	1084.648524504711	658.258505344094	
128	32.132142857143	850.270755341296	1001.804881008209	464.548174906712	1025.305139959351	1427.422184836281	286.355061622932	1137.369623939059	1352.877041910277	438.322699495308	1065.619880066088	1428.561722000385	616.488706033905	1038.334419561855	1485.246731617835	437.295613955858	1076.133819043866	933.159499431074	577.261627198386	1059.920431004901	950.052330799090	304.070333992192	1077.436783969183	720.888406305299	553.345104709672	971.680340338143	626.609316093029	610.463551535272	1036.913041044810	560.446620731721	534.219407867809	1016.671693877644	471.641842439931	538.587839418211	1131.192039526800	763.391521043323	338.499058974899	1074.474540526079	636.373463898855	265.749930214675	1175.648233686490	575.189010066318	328.567100545359	1191.688554700881	502.307745299925	330.031136121753	1168.071896921093	427.141758343896	320.275062189338	1084.176787901183	307.385540104464	270.569471418096	1150.985955359128	198.441759142242	333.067016486595	971.676396677599	389.619146179320	544.198890325616	878.206551422874	302.106771130462	602.849418018439	904.488069707146	200.894812162649	541.377783442547	748.813454845249	46.218144785092	506.959358971534	921.943571849283	97.049019086191	546.501385607292	830.431751053853	38.224736312205	583.160956390243	1039.016563933865	40.658622370633	577.489814331131	1037.613793239237	37.922838015310	371.787668502160	1111.487955064175	34.882597491103	291.144781627050	1193.087599249418	97.693637515882	317.296795544763	1322.381139561242	48.529832951785	289.635995381222	885.611626152260	1102.154878865651	183.299899006557	874.858654911062	840.042776827204	177.102900201981	1071.751156372553	1089.016234155638	747.243271124586	1304.008429795337	1073.640737246680	655.748275338060	
